<svg id="Layer_1" data-name="Layer 1" xmlns="http://www.w3.org/2000/svg" xmlns:xlink="http://www.w3.org/1999/xlink" viewBox="0 0 64 64"><defs><style>.cls-1{fill:url(#New_Gradient_Swatch_4);}.cls-2{fill:#f6bb1b;}.cls-2,.cls-3,.cls-4{fill-rule:evenodd;}.cls-3{fill:url(#linear-gradient);}.cls-4{fill:url(#linear-gradient-2);}.cls-5{fill:#231f20;}</style><linearGradient id="New_Gradient_Swatch_4" x1="8.66107" y1="53.58589" x2="53.47442" y2="8.77254" gradientTransform="translate(0.93228 0.93228)" gradientUnits="userSpaceOnUse"><stop offset="0" stop-color="#001b66"/><stop offset="0.33005" stop-color="#00299a"/><stop offset="0.62242" stop-color="#0034c1"/><stop offset="0.85548" stop-color="#003bd8"/><stop offset="1" stop-color="#003de1"/></linearGradient><linearGradient id="linear-gradient" x1="35.21544" y1="35.42708" x2="12.11865" y2="23.14629" gradientUnits="userSpaceOnUse"><stop offset="0.00562" stop-color="#f6bb1b"/><stop offset="0.68767" stop-color="#b88000"/><stop offset="1" stop-color="#fff0a3"/></linearGradient><linearGradient id="linear-gradient-2" x1="48.73468" y1="34.51535" x2="33.23681" y2="26.27499" xlink:href="#linear-gradient"/></defs><title>favicon</title><path class="cls-1" d="M41.10658,62.713a15.60579,15.60579,0,0,1-3.60178-.70236A20.98237,20.98237,0,0,0,32,61.0545a20.971,20.971,0,0,0-5.50086.95494,15.63854,15.63854,0,0,1-3.606.70353,2.5876,2.5876,0,0,1-.80131-.10745c-1.084-.35186-2.18491-1.72554-3.35066-3.17993a20.15711,20.15711,0,0,0-3.75126-3.89425,20.40146,20.40146,0,0,0-4.90631-2.39925c-1.73055-.65875-3.36514-1.2809-4.01906-2.17965-.63938-.87853-.72862-2.61537-.82337-4.454a20.70178,20.70178,0,0,0-.7759-5.43917,19.81676,19.81676,0,0,0-2.512-4.70736C.92051,34.78057-.05435,33.29741-.05435,32.11144c0-1.18659.97486-2.66949,2.00708-4.23963a19.81067,19.81067,0,0,0,2.51214-4.708,20.70037,20.70037,0,0,0,.77633-5.43794c.09475-1.84051.184-3.57716.82319-4.45508.65386-.89869,2.28844-1.52109,4.019-2.18a20.40272,20.40272,0,0,0,4.9065-2.39937,20.17505,20.17505,0,0,0,3.75-3.89267c1.167-1.45585,2.2681-2.82972,3.35127-3.18114a2.58915,2.58915,0,0,1,.80235-.1077,15.61109,15.61109,0,0,1,3.60581.70358A20.9772,20.9772,0,0,0,32,3.16814a20.9829,20.9829,0,0,0,5.49915-.95422,15.61447,15.61447,0,0,1,3.6074-.704,2.5896,2.5896,0,0,1,.80175.10751c1.08359.35161,2.18472,1.72548,3.35047,3.17992a20.17078,20.17078,0,0,0,3.75126,3.89408A20.39688,20.39688,0,0,0,53.91466,11.09c1.73245.65972,3.36709,1.28212,4.02077,2.18044.63932.87853.72862,2.61537.82337,4.454a20.70217,20.70217,0,0,0,.77584,5.43923A19.81431,19.81431,0,0,0,62.046,27.87c1.03326,1.57179,2.00836,3.05531,2.00836,4.24147,0,1.18579-.97468,2.66888-2.00653,4.23908A19.80913,19.80913,0,0,0,59.53489,41.059a20.69474,20.69474,0,0,0-.77609,5.43923c-.09475,1.8388-.184,3.57564-.82337,4.45417-.65392.89875-2.28857,1.5209-4.01887,2.17965a20.39375,20.39375,0,0,0-4.90632,2.39925,20.15639,20.15639,0,0,0-3.75126,3.894c-1.16636,1.45487-2.2673,2.82831-3.35047,3.18A2.58645,2.58645,0,0,1,41.10658,62.713Z"/><path class="cls-2" d="M30.99065,50.26318C29.68612,42.15743,19.27822,36.97587,12.69887,37.054V21.21511a24.92675,24.92675,0,0,0-4.795-.02144V41.34506c8.03731-.09534,18.07747,1.89083,23.08677,8.91812Z"/><path class="cls-2" d="M33.00935,50.26318C34.31388,42.15743,44.72178,36.97587,51.301,37.054V21.21511a24.92763,24.92763,0,0,1,4.79507-.02144V41.34506c-8.03731-.09534-18.07747,1.89083-23.08677,8.91812Z"/><path class="cls-3" d="M30.99065,43.37276v-16.67c-3.167-5.31144-5.1483-8.41544-15.776-9.3792V34.42c7.391.78394,10.86623,2.99131,15.776,8.95273Z"/><path class="cls-4" d="M33.00935,43.37276v-16.67c3.167-5.31144,5.14826-8.41544,15.776-9.3792V34.42c-7.391.78394-10.86626,2.99131-15.776,8.95273Z"/><path class="cls-5" d="M46.66331,29.24775a4.99767,4.99767,0,0,1-2.15636.4146s-2.46252-1.68693-3.683-1.81058c0,0-1.78474.53925-2.22169.57559l-1.593.71935A10.20716,10.20716,0,0,1,35.9217,30.535s.236.68419,1.05244.2796l.14284-.22111s-.69531.424-.99866-.11622c0,0,.41957-.45863,1.07655-1.20013l1.49264-.70759a7.45547,7.45547,0,0,0,2.11037-.375,14.88243,14.88243,0,0,1,3.6684,1.69334A3.88386,3.88386,0,0,0,46.66331,29.24775Z"/><path class="cls-5" d="M40.97653,29.47985a1.44667,1.44667,0,0,1-.92484,1.05152,11.9671,11.9671,0,0,1-1.39163.28184,2.37389,2.37389,0,0,0-1.38088-.00168.469.469,0,0,0-.06835.8343c.18348.11375.25652.34221,2.6462-.01581,2.38958-.35768,3.068,1.22334,4.50539-.54691,0,0-.54851,1.44738-1.63846,1.13831a8.87379,8.87379,0,0,0-3.619-.35292c-1.37154.16645-2.04951.08868-2.17821-.59762l.62626-1.0018s.0923.2943.56335.25961c.47113-.03448,1.08618-.18838.88974-.59461,0,0,.07793.45441.47624.47416A1.644,1.644,0,0,0,40.97653,29.47985Z"/><path class="cls-5" d="M40.1542,30.34917a1.861,1.861,0,0,0,.14837-1.387,1.831,1.831,0,0,1,.10842,1.26523Z"/><path class="cls-5" d="M40.40073,29.58362a1.31617,1.31617,0,0,1-1.36147-.02689s-1.05106.56888-1.34353.49128l.07034-.16687s.48313.06557,1.06106-.58157c0,0,.41084.49338,1.56888.05849Z"/><path class="cls-5" d="M40.5908,30.59047a1.29923,1.29923,0,0,0,.61185-.83254A.75662.75662,0,0,1,40.5908,30.59047Z"/><path class="cls-5" d="M37.19014,31.19574a.33024.33024,0,0,1,.30071-.31931,1.25276,1.25276,0,0,1,.5934.0409,1.43921,1.43921,0,0,1-.04455.75264s.04227-.49186-.06459-.62595C37.97511,31.044,37.35021,30.83685,37.19014,31.19574Z"/><path class="cls-5" d="M36.66969,29.79875l.24716.26461s-.36253.46255-.64509.37236a.78329.78329,0,0,0,.521-.36874l-.22365-.16529Z"/><path class="cls-5" d="M36.97165,31.34237l-.40236.694s.3499.36492.734-.293A.42846.42846,0,0,1,36.97165,31.34237Z"/><path class="cls-5" d="M38.23688,31.89462a4.74088,4.74088,0,0,1,.09729.89366s.90575.37673.79222-1.0239l-.173.06587s.12545,1.1279-.54091.858a2.61408,2.61408,0,0,0-.08914-.82647Z"/><path class="cls-5" d="M38.492,31.85224s.26317.86237-.13728.63941l.00811.0668s.47413.27065.20732-.71575Z"/><path class="cls-5" d="M39.03934,32.35167s.43224.29837.47027-.60009l-.467.068Z"/><path class="cls-5" d="M35.31321,33.91329c.667-1.03152.97926-1.06944.97926-1.06944q.33559-.75219.69139-1.44583l-.05714-.12714c-.25489.487-.5.978-.68669,1.398,0,0-.04782-.04481-.2732.19458a22.66146,22.66146,0,0,1,2.29758-4.005s-.6601,1.14985-1.20925,2.16913l.26939-.27547c3.74542-6.89438,8.659-9.24717,8.659-9.24717C39.15062,24.50736,35.31321,33.91329,35.31321,33.91329Z"/><path class="cls-5" d="M43.94276,31.65736a1.7029,1.7029,0,0,1,.87243.05561c.57.15129.59667.02086.76607-.05051a.75209.75209,0,0,1-.72466.18089,2.02432,2.02432,0,0,0-1.18.06753Z"/><path class="cls-5" d="M38.59106,28.2871a2.2526,2.2526,0,0,1-.155-2.30123,2.13115,2.13115,0,0,0,.12385.46047,4.69318,4.69318,0,0,1,.40921-1.01178,2.34055,2.34055,0,0,0,.05572.36681,3.08566,3.08566,0,0,1,.4919-.79537,2.41927,2.41927,0,0,0-.38884,1.1789,1.19354,1.19354,0,0,1-.23025-.3116,2.02362,2.02362,0,0,0-.18067,1.02917,1.76525,1.76525,0,0,1-.29078-.44,2.42162,2.42162,0,0,0,.34832,1.56455Z"/><path class="cls-5" d="M38.89992,28.03451a2.50142,2.50142,0,0,0,1.41045-.49933c.68463-.51318.62517-.63057.96272-.73926a1.62547,1.62547,0,0,0-.79348.17542,7.60873,7.60873,0,0,0,.75558-.48777c.22641-.186.90829-.72128,1.38042-.65423.47214.06723.17281.39787.11963.42676a.37.37,0,0,0,.22007-.332c-.00609-.237-.39868-.393-.81018-.24129-.41162.15187-1.75745,1.277-2.29069,1.54559l.46133-.02206a2.47112,2.47112,0,0,1-1.3291.70455Z"/><path class="cls-5" d="M41.73275,25.64222s1.74311-.74343,1.69051-.058C43.42326,25.5842,43.983,24.50915,41.73275,25.64222Z"/><path class="cls-5" d="M39.77945,24.37436a6.42869,6.42869,0,0,1,.38153-.68008l-.004.33993a8.16817,8.16817,0,0,1,1.0564-1.27109l-.08506.41772s.6668-.5676,1.23948-.97666c0,0-.04915.15306-.06495.2116,0,0,.49315-.32015,1.00535-.57474a7.44355,7.44355,0,0,0-1.22151,1.03107l.04989-.33432a5.00934,5.00934,0,0,0-1.19977,1.20931,1.45854,1.45854,0,0,1-.04184-.43619,5.19271,5.19271,0,0,0-.79541,1.183l-.03589-.48235Z"/><path class="cls-5" d="M45.25545,20.91437l-.15286.32413a7.54369,7.54369,0,0,1,2.0184-.24511l-.337.30119a1.44412,1.44412,0,0,1,.772.39283,5.87827,5.87827,0,0,0-2.07649.88593l.59768.07436a9.0961,9.0961,0,0,0-1.11291.622l.38994.04318A3.83315,3.83315,0,0,0,44.124,23.994a9.1977,9.1977,0,0,1,.75074-.62286l-.42773-.07262a5.69974,5.69974,0,0,1,1.16833-.538l-.49268-.14387A9.50082,9.50082,0,0,1,47.013,21.59507a1.85853,1.85853,0,0,0-.65207-.05682l.26755-.40589a3.94668,3.94668,0,0,0-1.79879.37679Z"/><path class="cls-5" d="M39.62153,26.89439a1.64714,1.64714,0,0,1,.11393-1.48492,1.80359,1.80359,0,0,0-.00745,1.33631Z"/><path class="cls-5" d="M39.91551,26.51929a1.35609,1.35609,0,0,1-.01739-.98238,1.36189,1.36189,0,0,0,.097.89348Z"/><path class="cls-5" d="M41.29835,25.14042s1.7964-.86284,2.28683-.4585c0,0-.51621-.526-2.03911.16814Z"/><path class="cls-5" d="M42.07316,24.34488a2.92722,2.92722,0,0,1,1.44531-.1188,1.80322,1.80322,0,0,0-1.33611-.00771Z"/><path class="cls-5" d="M42.57066,23.96765a3.572,3.572,0,0,1,.84186-.0571,3.351,3.351,0,0,0-.76622-.06524Z"/><path class="cls-5" d="M43.04768,23.42291a3.66109,3.66109,0,0,1,.58966-1.203,3.49724,3.49724,0,0,0-.43458,1.08242Z"/><path class="cls-5" d="M43.57313,22.99706a2.90725,2.90725,0,0,1,.34387-.70954,3.493,3.493,0,0,0-.25031.64166Z"/><path class="cls-5" d="M35.31321,33.91329s1.82711,1.06608.681,2.18944l.20427.00759S37.58634,35.01453,35.31321,33.91329Z"/><path class="cls-5" d="M37.14977,33.78687c0,.07332-.218.13277-.48681.13277s-.48683-.05945-.48683-.13277.218-.1328.48683-.1328S37.14977,33.71353,37.14977,33.78687Z"/><path class="cls-5" d="M38.22583,33.49068c0,.05133-.15255.09293-.34075.09293s-.34077-.0416-.34077-.09293.15256-.09293.34077-.09293S38.22583,33.43935,38.22583,33.49068Z"/><path class="cls-5" d="M22.50034,28.28342a1.42981,1.42981,0,0,1,.50309-1.18071,2.09518,2.09518,0,0,1,1.35524-.40642,2.03225,2.03225,0,0,1,1.57182.70455,2.52815,2.52815,0,0,1,.635,1.7576,2.38873,2.38873,0,0,1-.05461.52652l.81321-.00775V26.78909h.68112v5.67552h-.68112V30.30428h-.95268a2.6955,2.6955,0,0,1-1.30838,1.3473,5.34138,5.34138,0,0,1-2.524.55752,7.96912,7.96912,0,0,1-.90785-.05037,5.18564,5.18564,0,0,1-.86911-.17618,3.29039,3.29039,0,0,1-.74514-.3116,1.544,1.544,0,0,1-.511-.48,1.16848,1.16848,0,0,1-.19555-.66194.868.868,0,0,1,.23226-.58076.71921.71921,0,0,1,.56527-.26326H25.822a1.9064,1.9064,0,0,0-.3948-1.79634,1.51484,1.51484,0,0,0-1.19252-.542,1.14863,1.14863,0,0,0-.88258.302.49786.49786,0,0,1,.34831-.11623.92191.92191,0,0,1,.656.25754.84364.84364,0,0,1,.273.64072.97657.97657,0,0,1-.29591.73739,1.03789,1.03789,0,0,1-.74938.28466,1.00333,1.00333,0,0,1-.78-.33687A1.19685,1.19685,0,0,1,22.50034,28.28342ZM19.96846,30.583a.58556.58556,0,0,0,.26326.45291,2.052,2.052,0,0,0,.65437.335,5.7962,5.7962,0,0,0,.79753.19537,4.36634,4.36634,0,0,0,.73167.06973,5.15091,5.15091,0,0,0,1.95113-.35034,2.48673,2.48673,0,0,0,1.24638-.98146H20.224Q19.96855,30.30428,19.96846,30.583ZM23.979,28.39965a.41493.41493,0,0,0-.12767-.30772.42026.42026,0,0,0-.30588-.12582q-.3946,0-.3948.42579,0,.44913.41805.449Q23.97937,28.84094,23.979,28.39965Z"/></svg>